<svg width="54" height="66" viewBox="0 0 54 66" fill="none" xmlns="http://www.w3.org/2000/svg">
<path d="M7.31914 33.4988L1 34.8676" stroke="#FFE6CD" stroke-miterlimit="10" stroke-linecap="round" stroke-linejoin="round"/>
<path d="M7.10779 29.4934L4.76282 29.5582" stroke="#FFE6CD" stroke-miterlimit="10" stroke-linecap="round" stroke-linejoin="round"/>
<path d="M7.89186 25.4876L4.16309 24.9185" stroke="#FFE6CD" stroke-miterlimit="10" stroke-linecap="round" stroke-linejoin="round"/>
<path d="M10.2503 39.8892L8.74377 41.0058" stroke="#FFE6CD" stroke-miterlimit="10" stroke-linecap="round" stroke-linejoin="round"/>
<path d="M12.4726 43.2178L8.72339 46.5894" stroke="#FFE6CD" stroke-miterlimit="10" stroke-linecap="round" stroke-linejoin="round"/>
<path d="M13.0656 14.8684L11.2932 13.3411" stroke="#FFE6CD" stroke-miterlimit="10" stroke-linecap="round" stroke-linejoin="round"/>
<path d="M22.9363 9.20577L21.6139 1" stroke="#FFE6CD" stroke-miterlimit="10" stroke-linecap="round" stroke-linejoin="round"/>
<path d="M26.672 8.8239V5.10645" stroke="#FFE6CD" stroke-miterlimit="10" stroke-linecap="round" stroke-linejoin="round"/>
<path d="M37.4424 12.2603L38.8875 10.0342" stroke="#FFE6CD" stroke-miterlimit="10" stroke-linecap="round" stroke-linejoin="round"/>
<path d="M44.634 21.6119L47.6743 20.4016" stroke="#FFE6CD" stroke-miterlimit="10" stroke-linecap="round" stroke-linejoin="round"/>
<path d="M45.8066 25.4877L53.2096 23.8379" stroke="#FFE6CD" stroke-miterlimit="10" stroke-linecap="round" stroke-linejoin="round"/>
<path d="M41.7779 40.3359C41.7506 40.3936 41.737 40.4296 41.737 40.4296C41.1848 41.503 40.7008 42.6197 40.2918 43.7652C40.1078 44.2839 39.9237 44.8243 39.5488 45.2061C39.2216 45.5303 38.6831 45.8041 38.1582 46.0418C39.5897 43.758 40.5236 42.2019 41.7779 40.3359Z" stroke="#FFE6CD" stroke-width="0.5374" stroke-miterlimit="10"/>
<path d="M41.8597 40.2134C41.8324 40.2494 41.8119 40.2854 41.7847 40.3214C41.7983 40.2926 41.8188 40.2566 41.8392 40.2134H41.8597Z" stroke="#FFE6CD" stroke-width="0.5374" stroke-miterlimit="10"/>
<path d="M43.3457 38.0158C43.1821 38.1022 43.0185 38.1959 42.8685 38.2967C42.9231 38.2031 42.9844 38.1022 43.0389 38.0085C43.1344 38.0085 43.2366 38.0085 43.3457 38.0158Z" stroke="#FFE6CD" stroke-width="0.5374" stroke-miterlimit="10"/>
<path d="M50.1487 32.6055C50.1555 32.5983 50.1555 32.5983 50.1624 32.5911C48.4991 36.2653 47.1698 40.1124 45.8473 43.9379C45.6224 44.5935 45.4315 45.3788 45.1248 45.9912C44.7635 46.7188 44.1295 47.2375 43.4751 47.677C42.7798 48.1453 42.0572 48.5271 41.3074 48.8729C41.9141 48.5415 42.2822 47.8139 42.5753 47.1439C43.4478 45.1843 44.3272 43.2247 45.1997 41.2651C46.2495 38.9237 47.2993 36.5535 48.6967 34.4282C48.7513 34.4066 48.8058 34.3777 48.8467 34.3489C49.4193 33.9023 49.6784 33.1674 50.1487 32.6055Z" stroke="#FFE6CD" stroke-width="0.5374" stroke-miterlimit="10"/>
<path d="M19.6159 45.5154L19.6158 45.5154C14.1971 42.5856 10.4777 36.6179 10.4777 29.7166C10.4777 19.8946 18.0097 11.9751 27.2377 11.9751C36.4658 11.9751 43.9977 19.8947 43.9977 29.7094C43.9977 31.5423 43.7386 33.3028 43.2479 34.9638L43.2475 34.9652C42.9941 35.8325 42.6807 36.6755 42.3076 37.4839C40.4668 37.7755 39.1737 38.9718 38.0145 40.1421C36.7854 41.3756 35.7527 42.9024 34.7996 44.3115L34.7446 44.3926L34.7438 44.3939C34.6481 44.5362 34.5545 44.6902 34.4659 44.8359L34.4549 44.8541C34.3606 45.009 34.2706 45.1564 34.1767 45.2957C33.9839 45.5815 33.8086 45.7801 33.6319 45.8877C33.3673 46.0474 33.0483 46.1481 32.6917 46.2221C31.1462 46.5388 29.7679 46.975 28.6789 47.3936C28.2005 47.4327 27.7207 47.458 27.2377 47.458C26.1541 47.458 25.0901 47.3463 24.0659 47.1368L24.0657 47.1367C22.4927 46.8154 20.9984 46.2635 19.6159 45.5154ZM19.378 45.9552C20.8027 46.7261 22.3433 47.2952 23.9657 47.6266L43.7275 35.1054C44.2319 33.398 44.4977 31.5897 44.4977 29.7094C44.4977 19.6448 36.7675 11.4751 27.2377 11.4751C17.7079 11.4751 9.97766 19.6449 9.97766 29.7166C9.97766 36.7984 13.795 42.9366 19.378 45.9552Z" stroke="#FFE6CD"/>
<path d="M50.2306 31.3594C50.217 31.4602 50.2442 31.5683 50.3124 31.6331C50.3874 31.698 50.4964 31.698 50.5919 31.662C50.4964 31.8637 50.401 32.0654 50.3124 32.2671C50.2374 32.1591 49.7943 32.3536 49.5898 32.4977C49.4876 32.5697 49.3921 32.6418 49.2967 32.7138C48.9422 32.5841 48.5469 32.6201 48.1856 32.757C47.797 32.9011 47.4494 33.1533 47.1222 33.4126C45.5543 34.6878 44.3 36.3232 43.0662 37.9514C43.0525 37.9658 43.0457 37.9874 43.0321 38.009C42.848 38.009 42.6776 38.0162 42.5072 38.0378C42.9435 37.1301 43.3048 36.1791 43.5911 35.1993C44.6954 34.5437 45.7929 33.8809 46.8972 33.2253C47.9879 32.5697 48.6355 31.1577 49.7602 30.5597C50.0806 30.3868 50.5919 30.1779 51.0145 30.1418C50.9941 30.1635 50.9736 30.1851 50.9532 30.2067C50.7146 30.4805 50.5033 30.7758 50.3329 31.1C50.292 31.1721 50.2442 31.2657 50.2306 31.3594Z" stroke="#FFE6CD" stroke-width="0.5374" stroke-miterlimit="10"/>
<path d="M44.5863 37.771C44.5727 37.8286 44.525 37.879 44.4841 37.9151C43.7956 38.5418 43.1207 39.2695 42.4595 39.9323C42.2754 40.1196 42.0709 40.206 41.8596 40.2132H41.8392C41.7778 40.2132 41.7165 40.206 41.6551 40.1988C41.5801 40.1844 41.4642 40.1196 41.3893 40.0475C41.3347 39.9971 41.2938 39.9395 41.2938 39.8818C41.2938 39.8242 41.3279 39.7738 41.362 39.7233C41.5665 39.4424 41.7915 39.1758 42.0437 38.9453C42.2959 38.7003 42.5754 38.4842 42.8617 38.2969C43.0185 38.196 43.1752 38.1024 43.3389 38.0159C43.707 37.8214 44.1023 37.6773 44.5045 37.5764C44.5591 37.562 44.6 37.7061 44.5863 37.771Z" stroke="#FFE6CD" stroke-width="0.5374" stroke-miterlimit="10"/>
<path d="M41.1711 48.938C41.1234 48.9596 41.0825 48.974 41.028 48.9884" stroke="#FFE6CD" stroke-miterlimit="10"/>
<path d="M41.7846 40.3218C41.7846 40.3218 41.7777 40.3287 41.7777 40.3357" stroke="#FFE6CD" stroke-miterlimit="10"/>
<path d="M28.6624 47.9651C28.4987 48.0299 28.3351 48.0876 28.1852 48.1524" stroke="#FFE6CD" stroke-miterlimit="10"/>
<path d="M48.3833 34.4425C48.2402 34.3921 48.1652 34.2192 48.1856 34.0679C48.2061 33.9166 48.2879 33.7005 48.3833 33.578C48.6492 33.2322 48.9559 32.9656 49.2968 32.7063C48.9423 32.5766 48.5469 32.6126 48.1856 32.7495C47.7971 32.8936 47.4494 33.1457 47.1222 33.4051C45.5544 34.6803 44.3001 36.3157 43.0663 37.9438C43.0526 37.9582 43.0458 37.9799 43.0322 38.0015C43.1344 38.0015 43.2299 38.0015 43.3389 38.0087C43.707 37.8142 44.1024 37.6701 44.5046 37.5692C44.5591 37.5548 44.6 37.6989 44.5864 37.7637C44.5728 37.8214 44.525 37.8718 44.4841 37.9078C43.7957 38.5346 43.1208 39.2622 42.4596 39.925C42.2755 40.1124 42.071 40.1988 41.8597 40.206C41.8324 40.242 41.812 40.2781 41.7847 40.3141C41.7983 40.2853 41.8188 40.2492 41.8392 40.206C41.7779 40.206 41.7165 40.1988 41.6552 40.1916C41.5802 40.1772 41.4643 40.1124 41.3893 40.0403C41.3348 39.9899 41.2939 39.9322 41.2939 39.8746C41.2939 39.817 41.328 39.7665 41.3621 39.7161C41.5666 39.4351 41.7915 39.1686 42.0437 38.938C42.296 38.6931 42.5754 38.477 42.8618 38.2896C42.9163 38.196 42.9776 38.0951 43.0322 38.0015C42.8481 38.0015 42.6777 38.0087 42.5073 38.0303C40.7077 38.2176 39.4534 39.3487 38.2332 40.5806C37.0198 41.7982 35.9973 43.3183 35.0225 44.7592C34.6612 45.2995 34.3067 46.0704 33.7546 46.4018C33.4205 46.6035 33.0388 46.7188 32.6571 46.798C31.1097 47.115 29.7327 47.5545 28.6556 47.9723C28.1444 48.0228 27.6263 48.0444 27.1014 48.0444C25.9835 48.0444 24.886 47.9363 23.8294 47.713C22.207 47.3816 20.6664 46.8124 19.2417 46.0415C18.7577 46.2145 18.2805 46.409 17.8579 46.7116C17.4284 47.0141 17.0671 47.4176 16.7263 47.8282C13.7133 51.5169 12.3499 56.3654 11.0752 61.0482C11.0752 61.0482 14.7153 66.7253 20.5914 64.4703C20.8095 63.1807 21.0277 61.8984 21.2458 60.616C21.4435 59.4489 21.648 58.2746 22.0979 57.1867C22.5478 56.106 23.2704 55.1046 24.2724 54.5715C25.1177 54.1321 26.0789 54.0528 27.0196 53.9808C28.9351 53.8223 30.8915 53.6133 32.6571 52.8064C33.3933 52.4678 34.0886 52.0356 34.8112 51.6538C36.8494 50.5659 39.0853 49.9031 41.178 48.9377C41.2257 48.9161 41.2666 48.8945 41.3075 48.8729C41.9142 48.5415 42.2823 47.8138 42.5754 47.1438C43.448 45.1842 44.3274 43.2246 45.1999 41.2651C46.2497 38.9236 47.2995 36.5534 48.6969 34.4281C48.5878 34.4641 48.472 34.4785 48.3833 34.4425ZM41.737 40.4293C41.1848 41.5028 40.7008 42.6195 40.2918 43.765C40.1078 44.2837 39.9237 44.824 39.5488 45.2058C39.2216 45.53 38.6831 45.8038 38.1582 46.0415C39.5897 43.7506 40.5236 42.2016 41.7779 40.3357C41.7506 40.3933 41.737 40.4293 41.737 40.4293Z" stroke="#FFE6CD" stroke-miterlimit="10"/>
<path d="M41.7848 40.3218C41.7848 40.3218 41.778 40.3287 41.778 40.3357" stroke="#FFE6CD" stroke-miterlimit="10"/>
<path d="M30.9393 53.3902C32.0436 53.0732 32.8548 52.0934 33.5842 51.1641C34.6954 49.7592 36.7608 48.2535 37.722 46.7334C37.872 46.4956 38.0151 46.2651 38.1583 46.0417" stroke="#FFE6CD" stroke-miterlimit="10"/>
<path d="M50.3125 32.267C50.258 32.3751 50.2103 32.4831 50.1625 32.5912C50.1625 32.5984 50.1557 32.5984 50.1489 32.6056C49.6785 33.1603 49.4263 33.9024 48.8401 34.3418C48.7992 34.3707 48.7446 34.3995 48.6901 34.4211C48.5879 34.4571 48.472 34.4715 48.3765 34.4355C48.2334 34.3851 48.1584 34.2122 48.1789 34.0609C48.1993 33.9096 48.2811 33.6934 48.3765 33.571C48.6424 33.2252 48.9492 32.9586 49.29 32.6992C49.3854 32.6272 49.4877 32.5552 49.5831 32.4831C49.7876 32.3534 50.2375 32.1661 50.3125 32.267Z" stroke="#FFE6CD" stroke-miterlimit="10"/>
<path d="M50.1626 32.5913C50.2103 32.4832 50.2648 32.3752 50.3126 32.2671C50.3467 32.3175 50.3126 32.4184 50.1626 32.5913Z" stroke="#FFE6CD" stroke-miterlimit="10"/>
<path d="M51.7509 29.8104C51.6623 29.9977 51.5736 30.1778 51.4782 30.3579C51.2942 30.7037 51.0897 31.0423 50.8783 31.3737C50.8102 31.4746 50.742 31.5755 50.6398 31.6403C50.6261 31.6475 50.6057 31.6547 50.592 31.6619C50.5034 31.7051 50.3875 31.7051 50.3126 31.6331C50.2376 31.5683 50.2171 31.453 50.2307 31.3593C50.2444 31.2657 50.2921 31.172 50.3398 31.0856C50.5171 30.7686 50.7284 30.466 50.9601 30.1922C50.9806 30.1706 51.001 30.149 51.0215 30.1274C51.1237 30.0193 51.2328 29.9113 51.3419 29.8032C51.4305 29.7311 51.6146 29.5078 51.7304 29.5078C51.9349 29.5078 51.8054 29.6879 51.7509 29.8104Z" stroke="#FFE6CD" stroke-miterlimit="10"/>
<path d="M24.2587 47.6917C24.1156 47.6989 23.9792 47.7061 23.8361 47.7133" stroke="#FFE6CD" stroke-miterlimit="10"/>
<path d="M18.9415 50.3211C19.296 49.6223 19.7323 48.9379 20.3799 48.5272C20.7821 48.2679 21.2456 48.1382 21.7091 48.0301C22.4113 47.8644 23.1202 47.7636 23.836 47.7131" stroke="#FFE6CD" stroke-miterlimit="10"/>
<path d="M21.0924 38.288C21.1365 38.2996 22.2832 38.6393 22.3328 38.6393C22.2501 38.6681 21.1806 39.0308 21.1806 39.0308C21.1806 39.0308 20.916 40.073 20.8719 40.453C20.8278 40.833 20.6955 41.4203 20.6955 41.4203C20.6955 41.4203 20.4915 40.5106 20.4529 40.0903C20.3868 39.6181 20.3151 39.0423 20.2876 39.0193C20.2214 39.002 19.196 38.7947 18.9645 38.6969C18.9645 38.6969 18.9755 38.6853 19.1243 38.6681C19.1519 38.6623 20.1773 38.2535 20.2876 38.2305C20.3151 38.1038 20.5797 36.4225 20.6238 35.8064C20.8278 36.8658 21.0483 38.2765 21.0924 38.288Z" stroke="#FFE6CD" stroke-width="0.5374" stroke-miterlimit="10"/>
<path d="M24.9709 18.7085C25.0254 18.7229 26.4433 19.1479 26.4978 19.1479C26.3956 19.184 25.0731 19.6378 25.0731 19.6378C25.0731 19.6378 24.7459 20.9418 24.6914 21.4173C24.6368 21.8928 24.4732 22.6277 24.4732 22.6277C24.4732 22.6277 24.221 21.4894 24.1733 20.9634C24.0915 20.3727 24.0029 19.6523 23.9688 19.6234C23.887 19.6018 22.6191 19.3353 22.3328 19.22C22.3328 19.22 22.3464 19.2056 22.5305 19.184C22.5645 19.1768 23.8325 18.6653 23.9688 18.6364C24.0029 18.4779 24.3301 16.3743 24.3846 15.5962C24.6368 16.9218 24.9095 18.6941 24.9709 18.7085Z" stroke="#FFE6CD" stroke-width="0.5374" stroke-miterlimit="10"/>
<path d="M36.9038 24.2055C36.931 24.2127 37.5241 24.3856 37.5446 24.3856C37.5037 24.4 36.9515 24.5945 36.9515 24.5945C36.9515 24.5945 36.8152 25.142 36.7947 25.3438C36.7674 25.5455 36.7061 25.8481 36.7061 25.8481C36.7061 25.8481 36.6038 25.3726 36.5834 25.1493C36.5493 24.9043 36.5084 24.6017 36.4948 24.5873C36.4607 24.5729 35.929 24.4648 35.8063 24.4144C35.8063 24.4144 35.8131 24.4144 35.8881 24.4C35.9017 24.4 36.4334 24.1839 36.4948 24.1695C36.5084 24.1046 36.6447 23.2257 36.672 22.8943C36.7674 23.4562 36.8765 24.1983 36.9038 24.2055Z" stroke="#FFE6CD" stroke-width="0.5374" stroke-miterlimit="10"/>
<path d="M35.7109 37.3533C35.745 37.3605 36.5153 37.5911 36.5562 37.5911C36.5016 37.6127 35.7723 37.8648 35.7723 37.8648C35.7723 37.8648 35.5882 38.5853 35.5609 38.8518C35.5337 39.1112 35.4451 39.5218 35.4451 39.5218C35.4451 39.5218 35.3019 38.895 35.2814 38.6069C35.2337 38.2755 35.186 37.8792 35.1656 37.8648C35.1178 37.8504 34.4157 37.7063 34.2657 37.6415C34.2657 37.6415 34.2726 37.6343 34.3748 37.6199C34.3953 37.6199 35.0906 37.3317 35.1656 37.3173C35.186 37.2308 35.3632 36.0709 35.3973 35.6387C35.5269 36.3663 35.6768 37.3461 35.7109 37.3533Z" stroke="#FFE6CD" stroke-width="0.5374" stroke-miterlimit="10"/>
<path d="M18.0769 26.446C17.9747 26.4821 16.6522 26.9359 16.6522 26.9359C16.6522 26.9359 16.325 28.2399 16.2705 28.7154C16.2159 29.1909 16.0523 29.9258 16.0523 29.9258C16.0523 29.9258 15.8001 28.7875 15.7524 28.2615C15.6706 27.6708 15.582 26.9503 15.5479 26.9215C15.4661 26.8999 14.1982 26.6334 13.9119 26.5181C13.9119 26.5181 13.9255 26.5037 14.1096 26.4821C14.1436 26.4749 15.4116 25.9633 15.5479 25.9345C15.582 25.776 15.9092 23.6724 15.9637 22.8943C16.2091 24.2199 16.4818 25.9922 16.5363 26.0066C16.6045 26.021 18.0224 26.446 18.0769 26.446Z" fill="#FFE6CD"/>
<path d="M33.2346 29.246C33.1324 29.282 31.8099 29.7359 31.8099 29.7359C31.8099 29.7359 31.4827 31.0399 31.4282 31.5153C31.3736 31.9908 31.21 32.7257 31.21 32.7257C31.21 32.7257 30.9578 31.5874 30.9101 31.0615C30.8283 30.4707 30.7397 29.7503 30.7056 29.7215C30.6238 29.6998 29.3559 29.4405 29.0696 29.318C29.0696 29.318 29.0832 29.3036 29.2673 29.282C29.3013 29.2748 30.5693 28.7633 30.7056 28.7345C30.7397 28.576 31.0669 26.4723 31.1214 25.7014C31.3668 27.027 31.6395 28.7921 31.694 28.8065C31.7622 28.8209 33.1801 29.246 33.2346 29.246Z" fill="#FFE6CD"/>
<path d="M36.5562 37.5911C36.5016 37.6127 35.7723 37.8648 35.7723 37.8648C35.7723 37.8648 35.5882 38.5853 35.5609 38.8518C35.5337 39.1112 35.4451 39.5218 35.4451 39.5218C35.4451 39.5218 35.3019 38.895 35.2814 38.6069C35.2337 38.2755 35.186 37.8792 35.1656 37.8648C35.1178 37.8504 34.4157 37.7063 34.2657 37.6415C34.2657 37.6415 34.2726 37.6343 34.3748 37.6199C34.3953 37.6199 35.0906 37.3317 35.1656 37.3173C35.186 37.2308 35.3632 36.0709 35.3973 35.6387C35.5337 36.3735 35.6836 37.3461 35.7177 37.3533C35.745 37.3605 36.5153 37.5911 36.5562 37.5911Z" fill="#FFE6CD"/>
<path d="M20.6016 30.5086C20.5607 30.523 20.0085 30.7176 20.0085 30.7176C20.0085 30.7176 19.8722 31.2651 19.8517 31.4668C19.8244 31.6685 19.7631 31.9711 19.7631 31.9711C19.7631 31.9711 19.6608 31.4956 19.6404 31.2723C19.6063 31.0274 19.5654 30.7248 19.5518 30.7104C19.5177 30.696 18.986 30.5879 18.8633 30.5375C18.8633 30.5375 18.8701 30.5375 18.9451 30.523C18.9587 30.523 19.4904 30.3069 19.5518 30.2925C19.5654 30.2277 19.7017 29.3487 19.729 29.0173C19.8313 29.5721 19.9471 30.3141 19.9676 30.3213C19.988 30.3285 20.5811 30.5086 20.6016 30.5086Z" fill="#FFE6CD"/>
</svg>
