<svg width="95" height="116" viewBox="0 0 95 116" fill="none" xmlns="http://www.w3.org/2000/svg">
<g id="Group">
<g id="Group_2">
<path id="Vector" d="M12.2562 58.8896L1 61.3278" stroke="#FFE6CD" stroke-miterlimit="10" stroke-linecap="round" stroke-linejoin="round"/>
<path id="Vector_2" d="M11.8797 51.7547L7.70264 51.8702" stroke="#FFE6CD" stroke-miterlimit="10" stroke-linecap="round" stroke-linejoin="round"/>
<path id="Vector_3" d="M13.2763 44.6193L6.63428 43.6055" stroke="#FFE6CD" stroke-miterlimit="10" stroke-linecap="round" stroke-linejoin="round"/>
<path id="Vector_4" d="M17.4775 70.2727L14.7939 72.2618" stroke="#FFE6CD" stroke-miterlimit="10" stroke-linecap="round" stroke-linejoin="round"/>
<path id="Vector_5" d="M21.436 76.2016L14.7576 82.2075" stroke="#FFE6CD" stroke-miterlimit="10" stroke-linecap="round" stroke-linejoin="round"/>
<path id="Vector_6" d="M22.4923 25.7036L19.3352 22.983" stroke="#FFE6CD" stroke-miterlimit="10" stroke-linecap="round" stroke-linejoin="round"/>
<path id="Vector_7" d="M40.0749 15.6168L37.7192 1" stroke="#FFE6CD" stroke-miterlimit="10" stroke-linecap="round" stroke-linejoin="round"/>
<path id="Vector_8" d="M46.729 14.9367V8.31484" stroke="#FFE6CD" stroke-miterlimit="10" stroke-linecap="round" stroke-linejoin="round"/>
<path id="Vector_9" d="M65.9141 21.0579L68.4883 17.0925" stroke="#FFE6CD" stroke-miterlimit="10" stroke-linecap="round" stroke-linejoin="round"/>
<path id="Vector_10" d="M78.7246 37.7154L84.1402 35.5594" stroke="#FFE6CD" stroke-miterlimit="10" stroke-linecap="round" stroke-linejoin="round"/>
<path id="Vector_11" d="M80.8132 44.6194L94.0001 41.6806" stroke="#FFE6CD" stroke-miterlimit="10" stroke-linecap="round" stroke-linejoin="round"/>
</g>
<path id="Vector_12" d="M73.6369 71.0683C73.5883 71.1709 73.5641 71.2351 73.5641 71.2351C72.5805 73.1472 71.7184 75.1363 70.9898 77.1768C70.662 78.1007 70.3341 79.0632 69.6663 79.7434C69.0834 80.3208 68.1242 80.8085 67.1892 81.232C69.7391 77.1639 71.4027 74.392 73.6369 71.0683Z" stroke="#FFE6CD" stroke-width="0.5374" stroke-miterlimit="10"/>
<path id="Vector_13" d="M73.7825 70.8501C73.7339 70.9143 73.6975 70.9785 73.6489 71.0426C73.6732 70.9913 73.7096 70.9271 73.7461 70.8501H73.7825Z" stroke="#FFE6CD" stroke-width="0.5374" stroke-miterlimit="10"/>
<path id="Vector_14" d="M76.4296 66.9359C76.1381 67.0899 75.8467 67.2567 75.5796 67.4364C75.6767 67.2695 75.786 67.0899 75.8832 66.923C76.0532 66.923 76.2353 66.9231 76.4296 66.9359Z" stroke="#FFE6CD" stroke-width="0.5374" stroke-miterlimit="10"/>
<path id="Vector_15" d="M88.5478 57.2982C88.5599 57.2854 88.5599 57.2854 88.572 57.2726C85.6093 63.8174 83.2414 70.6703 80.8858 77.4846C80.4851 78.6524 80.1451 80.0512 79.5987 81.142C78.9551 82.4381 77.8259 83.3621 76.6602 84.1449C75.4216 84.979 74.1345 85.6592 72.7988 86.2752C73.8795 85.6849 74.5352 84.3887 75.0573 83.1953C76.6116 79.7047 78.178 76.2141 79.7322 72.7235C81.6022 68.5528 83.4721 64.3307 85.9614 60.545C86.0585 60.5065 86.1557 60.4552 86.2285 60.4038C87.2485 59.6082 87.7099 58.2992 88.5478 57.2982Z" stroke="#FFE6CD" stroke-width="0.5374" stroke-miterlimit="10"/>
<path id="Vector_16" d="M33.9742 80.6382L33.9741 80.6381C24.1936 75.3499 17.4917 64.5867 17.4917 52.1524C17.4917 34.4615 31.0632 20.1592 47.7367 20.1592C64.4103 20.1592 77.9817 34.4617 77.9817 52.1395C77.9817 55.4415 77.5149 58.6149 76.6301 61.6098L76.6297 61.6112C76.1529 63.2427 75.5582 64.8274 74.8457 66.344C71.5969 66.7835 69.3211 68.8675 67.2103 70.9987C65.0472 73.1694 63.2253 75.8629 61.5209 78.3825L61.4322 78.5135L61.4314 78.5147C61.2661 78.7606 61.1034 79.0282 60.9442 79.2899L60.9263 79.3195C60.759 79.5946 60.594 79.8648 60.4209 80.1215C60.0697 80.6424 59.7187 81.0548 59.3289 81.2919C58.8034 81.6092 58.1861 81.7999 57.5313 81.9359C54.7767 82.5002 52.3225 83.2798 50.3918 84.025C49.5139 84.0978 48.6295 84.1455 47.7367 84.1455C45.7796 84.1455 43.8582 83.9437 42.0085 83.5654L42.0083 83.5653C39.1677 82.9851 36.4699 81.9885 33.9742 80.6382Z" stroke="#FFE6CD"/>
<path id="Vector_17" d="M88.6936 55.0784C88.6693 55.258 88.7179 55.4505 88.8393 55.566C88.9729 55.6815 89.1671 55.6815 89.3371 55.6174C89.1671 55.9767 88.9972 56.336 88.8393 56.6953C88.7057 56.5029 87.9165 56.8493 87.5522 57.106C87.3701 57.2343 87.2 57.3627 87.03 57.491C86.3986 57.26 85.6944 57.3242 85.0508 57.568C84.3587 57.8247 83.7394 58.2738 83.1566 58.7358C80.3638 61.0072 78.1295 63.9203 75.9317 66.8206C75.9075 66.8463 75.8953 66.8848 75.871 66.9233C75.5432 66.9233 75.2396 66.9361 74.936 66.9746C75.7132 65.3576 76.3567 63.6637 76.8667 61.9184C78.8338 60.7506 80.7888 59.5699 82.7559 58.4021C84.6987 57.2343 85.8522 54.7191 87.8558 53.6539C88.4265 53.3459 89.3371 52.9738 90.09 52.9096C90.0536 52.9481 90.0171 52.9866 89.9807 53.0251C89.5557 53.5128 89.1793 54.0389 88.8757 54.6164C88.8029 54.7447 88.7179 54.9116 88.6936 55.0784Z" stroke="#FFE6CD" stroke-width="0.5374" stroke-miterlimit="10"/>
<path id="Vector_18" d="M78.6395 66.4996C78.6152 66.6023 78.5302 66.6921 78.4574 66.7563C77.231 67.8727 76.0289 69.1689 74.851 70.3495C74.5232 70.6832 74.1589 70.8371 73.7825 70.85H73.7461C73.6368 70.85 73.5275 70.8372 73.4182 70.8243C73.2846 70.7987 73.0782 70.6832 72.9447 70.5548C72.8475 70.465 72.7747 70.3623 72.7747 70.2597C72.7747 70.157 72.8354 70.0672 72.8961 69.9773C73.2604 69.4769 73.6611 69.002 74.1103 68.5914C74.5596 68.1551 75.0575 67.7701 75.5675 67.4364C75.8467 67.2567 76.126 67.0899 76.4174 66.9359C77.0731 66.5894 77.7774 66.3328 78.4938 66.1531C78.591 66.1274 78.6638 66.3841 78.6395 66.4996Z" stroke="#FFE6CD" stroke-width="0.5374" stroke-miterlimit="10"/>
<g id="Group_3">
<g id="Group_4">
<path id="Vector_19" d="M72.5558 86.3908C72.4708 86.4293 72.3979 86.455 72.3008 86.4806" stroke="#FFE6CD" stroke-miterlimit="10"/>
<path id="Vector_20" d="M73.6491 71.0425C73.6491 71.0425 73.6365 71.0552 73.6365 71.068" stroke="#FFE6CD" stroke-miterlimit="10"/>
</g>
<path id="Vector_21" d="M50.2745 84.6584C49.9831 84.7739 49.6917 84.8765 49.4246 84.992" stroke="#FFE6CD" stroke-miterlimit="10"/>
<path id="Vector_22" d="M85.4031 60.5707C85.1481 60.4809 85.0145 60.1729 85.051 59.9034C85.0874 59.6339 85.2331 59.2489 85.4031 59.0307C85.8767 58.4147 86.4231 57.9399 87.0302 57.4779C86.3988 57.2469 85.6945 57.3111 85.051 57.5549C84.3588 57.8116 83.7396 58.2607 83.1567 58.7227C80.3639 60.9942 78.1297 63.9073 75.9319 66.8075C75.9076 66.8332 75.8955 66.8717 75.8712 66.9102C76.0533 66.9102 76.2233 66.9102 76.4176 66.923C77.0733 66.5765 77.7776 66.3199 78.494 66.1402C78.5911 66.1145 78.664 66.3712 78.6397 66.4867C78.6154 66.5894 78.5304 66.6792 78.4575 66.7434C77.2311 67.8598 76.029 69.156 74.8512 70.3366C74.5233 70.6703 74.1591 70.8243 73.7826 70.8371C73.7341 70.9013 73.6976 70.9654 73.6491 71.0296C73.6734 70.9783 73.7098 70.9141 73.7462 70.8371C73.6369 70.8371 73.5276 70.8243 73.4184 70.8114C73.2848 70.7858 73.0784 70.6703 72.9448 70.5419C72.8477 70.4521 72.7748 70.3494 72.7748 70.2468C72.7748 70.1441 72.8355 70.0543 72.8962 69.9644C73.2605 69.464 73.6612 68.9891 74.1105 68.5785C74.5598 68.1422 75.0576 67.7572 75.5676 67.4235C75.6647 67.2567 75.774 67.077 75.8712 66.9102C75.5433 66.9102 75.2397 66.923 74.9362 66.9615C71.7305 67.2952 69.4963 69.31 67.3228 71.5044C65.1614 73.6732 63.34 76.381 61.6036 78.9476C60.9601 79.91 60.3287 81.2832 59.3451 81.8735C58.7501 82.2328 58.0701 82.4381 57.3902 82.5793C54.6338 83.144 52.181 83.9268 50.2625 84.6711C49.3518 84.7609 48.4289 84.7994 47.494 84.7994C45.5026 84.7994 43.5476 84.6069 41.6655 84.2091C38.7756 83.6188 36.0314 82.605 33.4936 81.2318C32.6315 81.5398 31.7815 81.8863 31.0286 82.4253C30.2637 82.9643 29.6201 83.6829 29.013 84.4144C23.6459 90.9849 21.2174 99.6215 18.9468 107.963C18.9468 107.963 25.4309 118.075 35.8978 114.059C36.2864 111.762 36.6749 109.477 37.0635 107.193C37.4156 105.114 37.7799 103.022 38.5813 101.084C39.3827 99.1595 40.6698 97.3758 42.4548 96.4261C43.9605 95.6433 45.6726 95.5021 47.3483 95.3738C50.7603 95.0915 54.2452 94.7193 57.3902 93.282C58.7016 92.6789 59.9401 91.9089 61.2272 91.2287C64.8579 89.291 68.8406 88.1103 72.5684 86.3907C72.6534 86.3522 72.7262 86.3137 72.7991 86.2752C73.8798 85.6849 74.5355 84.3888 75.0576 83.1953C76.6119 79.7047 78.1783 76.2141 79.7325 72.7235C81.6025 68.5528 83.4724 64.3308 85.9616 60.545C85.7674 60.6092 85.561 60.6349 85.4031 60.5707ZM73.5641 71.2349C72.5805 73.147 71.7184 75.1361 70.9898 77.1766C70.662 78.1006 70.3342 79.063 69.6663 79.7432C69.0835 80.3207 68.1242 80.8083 67.1892 81.2318C69.7392 77.1509 71.4027 74.3918 73.6369 71.0681C73.5884 71.1708 73.5641 71.2349 73.5641 71.2349Z" stroke="#FFE6CD" stroke-miterlimit="10"/>
<path id="Vector_23" d="M73.6496 71.0427C73.6496 71.0427 73.637 71.0555 73.637 71.0682" stroke="#FFE6CD" stroke-miterlimit="10"/>
<path id="Vector_24" d="M54.3303 94.3215C56.2974 93.7568 57.7424 92.0116 59.0416 90.3561C61.0209 87.8537 64.7001 85.1716 66.4122 82.4638C66.6793 82.0403 66.9343 81.6297 67.1893 81.2318" stroke="#FFE6CD" stroke-miterlimit="10"/>
<g id="Group_5">
<path id="Vector_25" d="M88.8393 56.6952C88.7421 56.8877 88.6571 57.0802 88.5721 57.2726C88.5721 57.2855 88.56 57.2855 88.5478 57.2983C87.71 58.2865 87.2607 59.6083 86.2165 60.3911C86.1436 60.4424 86.0465 60.4937 85.9493 60.5322C85.7672 60.5964 85.5608 60.6221 85.3908 60.5579C85.1358 60.4681 85.0022 60.1601 85.0386 59.8906C85.0751 59.6211 85.2208 59.2361 85.3908 59.0179C85.8643 58.402 86.4107 57.9271 87.0179 57.4651C87.1879 57.3368 87.37 57.2085 87.54 57.0802C87.9043 56.8492 88.7057 56.5155 88.8393 56.6952Z" stroke="#FFE6CD" stroke-miterlimit="10"/>
<path id="Vector_26" d="M88.5723 57.2726C88.6573 57.0801 88.7544 56.8876 88.8394 56.6951C88.9001 56.7849 88.8394 56.9646 88.5723 57.2726Z" stroke="#FFE6CD" stroke-miterlimit="10"/>
<path id="Vector_27" d="M91.4013 52.3192C91.2435 52.6528 91.0856 52.9737 90.9156 53.2945C90.5878 53.9105 90.2235 54.5136 89.8471 55.1039C89.7257 55.2836 89.6042 55.4633 89.4221 55.5788C89.3978 55.5916 89.3614 55.6044 89.3371 55.6173C89.1792 55.6943 88.9728 55.6943 88.8393 55.5659C88.7057 55.4504 88.6693 55.2451 88.6935 55.0783C88.7178 54.9114 88.8028 54.7446 88.8878 54.5906C89.2035 54.026 89.58 53.487 89.9928 52.9993C90.0292 52.9608 90.0657 52.9223 90.1021 52.8838C90.2842 52.6913 90.4785 52.4988 90.6728 52.3063C90.8306 52.178 91.1585 51.7802 91.3649 51.7802C91.7292 51.7802 91.4985 52.101 91.4013 52.3192Z" stroke="#FFE6CD" stroke-miterlimit="10"/>
</g>
<path id="Vector_28" d="M42.4303 84.1708C42.1753 84.1836 41.9325 84.1964 41.6775 84.2093" stroke="#FFE6CD" stroke-miterlimit="10"/>
<path id="Vector_29" d="M32.959 88.8548C33.5904 87.61 34.3675 86.3908 35.5211 85.6593C36.2375 85.1974 37.0632 84.9664 37.8889 84.7739C39.1396 84.4787 40.4024 84.299 41.6773 84.2092" stroke="#FFE6CD" stroke-miterlimit="10"/>
</g>
<g id="Group_6">
<path id="Vector_30" d="M36.7903 67.4204C36.8688 67.4409 38.9114 68.046 38.9998 68.046C38.8525 68.0973 36.9474 68.7435 36.9474 68.7435C36.9474 68.7435 36.476 70.5999 36.3975 71.2768C36.3189 71.9537 36.0832 72.9999 36.0832 72.9999C36.0832 72.9999 35.7199 71.3794 35.6511 70.6306C35.5333 69.7896 35.4056 68.764 35.3565 68.723C35.2387 68.6922 33.4122 68.323 32.9998 68.1486C32.9998 68.1486 33.0194 68.1281 33.2845 68.0973C33.3336 68.0871 35.1601 67.3589 35.3565 67.3178C35.4056 67.0922 35.877 64.0973 35.9556 62.9999C36.3189 64.8871 36.7117 67.3999 36.7903 67.4204Z" stroke="#FFE6CD" stroke-width="0.5374" stroke-miterlimit="10"/>
<path id="Vector_31" d="M43.6989 32.5437C43.7961 32.5694 46.3217 33.3266 46.4189 33.3266C46.2367 33.3907 43.8811 34.1992 43.8811 34.1992C43.8811 34.1992 43.2982 36.522 43.2011 37.369C43.104 38.2159 42.8125 39.5249 42.8125 39.5249C42.8125 39.5249 42.3632 37.4973 42.2782 36.5605C42.1325 35.5082 41.9747 34.2249 41.914 34.1735C41.7683 34.135 39.5097 33.6602 38.9998 33.4549C38.9998 33.4549 39.0241 33.4292 39.3519 33.3907C39.4126 33.3779 41.6711 32.4667 41.914 32.4154C41.9747 32.1331 42.5575 28.3858 42.6547 26.9999C43.104 29.3612 43.5897 32.5181 43.6989 32.5437Z" stroke="#FFE6CD" stroke-width="0.5374" stroke-miterlimit="10"/>
<path id="Vector_32" d="M64.9547 42.3355C65.0033 42.3483 66.0597 42.6563 66.0961 42.6563C66.0233 42.682 65.0397 43.0285 65.0397 43.0285C65.0397 43.0285 64.7969 44.0038 64.7604 44.3631C64.7119 44.7224 64.6026 45.2614 64.6026 45.2614C64.6026 45.2614 64.4204 44.4144 64.384 44.0166C64.3233 43.5803 64.2504 43.0413 64.2261 43.0156C64.1654 42.99 63.2183 42.7975 62.9998 42.7076C62.9998 42.7076 63.0119 42.7076 63.1455 42.682C63.1697 42.682 64.1169 42.297 64.2261 42.2713C64.2504 42.1558 64.4933 40.5902 64.5419 39.9999C64.7119 41.0009 64.9061 42.3227 64.9547 42.3355Z" stroke="#FFE6CD" stroke-width="0.5374" stroke-miterlimit="10"/>
<path id="Vector_33" d="M62.8299 65.7555C62.8906 65.7683 64.2627 66.179 64.3355 66.179C64.2384 66.2175 62.9391 66.6666 62.9391 66.6666C62.9391 66.6666 62.6113 67.9499 62.5627 68.4247C62.5141 68.8867 62.3563 69.6182 62.3563 69.6182C62.3563 69.6182 62.1013 68.5018 62.0649 67.9884C61.9799 67.3981 61.8949 66.6923 61.8584 66.6666C61.7734 66.641 60.5228 66.3843 60.2556 66.2688C60.2556 66.2688 60.2678 66.256 60.4499 66.2303C60.4863 66.2303 61.7249 65.717 61.8584 65.6913C61.8949 65.5373 62.2106 63.4712 62.2713 62.7012C62.502 63.9974 62.7691 65.7427 62.8299 65.7555Z" stroke="#FFE6CD" stroke-width="0.5374" stroke-miterlimit="10"/>
<path id="Vector_34" d="M31.4189 46.3266C31.2367 46.3907 28.8811 47.1992 28.8811 47.1992C28.8811 47.1992 28.2982 49.522 28.2011 50.369C28.104 51.2159 27.8125 52.5249 27.8125 52.5249C27.8125 52.5249 27.3632 50.4973 27.2782 49.5605C27.1325 48.5082 26.9747 47.2249 26.914 47.1735C26.7683 47.135 24.5097 46.6602 23.9998 46.4549C23.9998 46.4549 24.0241 46.4292 24.3519 46.3907C24.4126 46.3779 26.6711 45.4667 26.914 45.4154C26.9747 45.1331 27.5575 41.3858 27.6547 39.9999C28.0918 42.3612 28.5775 45.5181 28.6747 45.5437C28.7961 45.5694 31.3217 46.3266 31.4189 46.3266Z" fill="#FFE6CD"/>
<path id="Vector_35" d="M58.4189 51.3137C58.2367 51.3779 55.8811 52.1864 55.8811 52.1864C55.8811 52.1864 55.2982 54.5091 55.2011 55.3561C55.1039 56.2031 54.8125 57.5121 54.8125 57.5121C54.8125 57.5121 54.3632 55.4844 54.2782 54.5476C54.1325 53.4953 53.9747 52.212 53.914 52.1607C53.7683 52.1222 51.5097 51.6602 50.9998 51.442C50.9998 51.442 51.024 51.4164 51.3519 51.3779C51.4126 51.365 53.6711 50.4539 53.914 50.4026C53.9747 50.1203 54.5575 46.373 54.6547 44.9999C55.0918 47.3612 55.5775 50.5052 55.6746 50.5309C55.7961 50.5566 58.3217 51.3137 58.4189 51.3137Z" fill="#FFE6CD"/>
<path id="Vector_36" d="M64.3355 66.179C64.2384 66.2175 62.9391 66.6666 62.9391 66.6666C62.9391 66.6666 62.6113 67.9499 62.5627 68.4247C62.5141 68.8867 62.3563 69.6182 62.3563 69.6182C62.3563 69.6182 62.1013 68.5018 62.0649 67.9884C61.9799 67.3981 61.8949 66.6923 61.8584 66.6666C61.7734 66.641 60.5228 66.3843 60.2556 66.2688C60.2556 66.2688 60.2678 66.256 60.4499 66.2303C60.4863 66.2303 61.7249 65.717 61.8584 65.6913C61.8949 65.5373 62.2106 63.4712 62.2713 62.7012C62.5141 64.0102 62.7813 65.7427 62.842 65.7555C62.8906 65.7683 64.2627 66.179 64.3355 66.179Z" fill="#FFE6CD"/>
<path id="Vector_37" d="M35.9159 53.563C35.8431 53.5887 34.8595 53.9352 34.8595 53.9352C34.8595 53.9352 34.6167 54.9105 34.5802 55.2698C34.5317 55.6292 34.4224 56.1681 34.4224 56.1681C34.4224 56.1681 34.2403 55.3212 34.2038 54.9233C34.1431 54.487 34.0703 53.948 34.046 53.9224C33.9853 53.8967 33.0381 53.7042 32.8196 53.6144C32.8196 53.6144 32.8317 53.6144 32.9653 53.5887C32.9896 53.5887 33.9367 53.2037 34.046 53.1781C34.0703 53.0626 34.3131 51.4969 34.3617 50.9066C34.5438 51.8948 34.7502 53.2166 34.7867 53.2294C34.8231 53.2422 35.8795 53.563 35.9159 53.563Z" fill="#FFE6CD"/>
</g>
</g>
</svg>
