<svg width="28" height="29" viewBox="0 0 28 29" fill="none" xmlns="http://www.w3.org/2000/svg">
<g id="man">
<path id="Vector" d="M11.9582 26.5105C6.48656 26.5105 2.04156 21.9709 2.04156 16.3828C2.04156 10.7948 6.48656 6.25519 11.9582 6.25519C17.4299 6.25519 21.8749 10.7948 21.8749 16.3828C21.8749 21.9709 17.4299 26.5105 11.9582 26.5105ZM11.9582 8.04242C7.4549 8.04242 3.79156 11.7837 3.79156 16.3828C3.79156 20.982 7.4549 24.7233 11.9582 24.7233C16.4616 24.7233 20.1249 20.982 20.1249 16.3828C20.1249 11.7837 16.4616 8.04242 11.9582 8.04242Z" fill="#FFE6CD"/>
<path id="Vector_2" d="M18.6666 10.4251C18.445 10.4251 18.2233 10.3417 18.0483 10.163C17.71 9.81743 17.71 9.24552 18.0483 8.89999L24.465 2.3468C24.8033 2.00126 25.3633 2.00126 25.7016 2.3468C26.04 2.69233 26.04 3.26424 25.7016 3.60977L19.285 10.163C19.11 10.3417 18.8883 10.4251 18.6666 10.4251Z" fill="#FFE6CD"/>
<path id="Vector_3" d="M25.0833 11.6172C24.605 11.6172 24.2083 11.2121 24.2083 10.7236V3.8725H17.5C17.0217 3.8725 16.625 3.46739 16.625 2.97888C16.625 2.49037 17.0217 2.08527 17.5 2.08527H25.0833C25.5617 2.08527 25.9583 2.49037 25.9583 2.97888V10.7236C25.9583 11.2121 25.5617 11.6172 25.0833 11.6172Z" fill="#FFE6CD"/>
</g>
</svg>
