<svg width="92" height="79" viewBox="0 0 92 79" fill="none" xmlns="http://www.w3.org/2000/svg">
<mask id="path-1-inside-1_53_157" fill="white">
<path fill-rule="evenodd" clip-rule="evenodd" d="M88.6647 60.1156C80.2907 59.0379 72.3675 54.6248 67.0503 47.2287C56.8707 33.0691 60.0971 13.3383 74.2566 3.15863C75.2702 2.42997 76.3123 1.77 77.3774 1.17781C69.7197 0.192303 61.6851 1.996 54.9217 6.85841C40.7621 17.0381 37.5357 36.7689 47.7153 50.9285C57.1663 64.0745 74.8501 67.7966 88.6647 60.1156Z"/>
</mask>
<path d="M67.0503 47.2287L68.6742 46.0613L67.0503 47.2287ZM88.6647 60.1156L88.92 58.132L94.9519 58.9083L89.6366 61.8636L88.6647 60.1156ZM74.2566 3.15863L73.0892 1.53473V1.53473L74.2566 3.15863ZM77.3774 1.17781L77.6327 -0.805827L83.6646 -0.0295385L78.3492 2.9258L77.3774 1.17781ZM54.9217 6.85841L56.0891 8.48231L54.9217 6.85841ZM47.7153 50.9285L46.0914 52.0959L47.7153 50.9285ZM68.6742 46.0613C73.6547 52.989 81.0726 57.1221 88.92 58.132L88.4094 62.0993C79.5089 60.9538 71.0804 56.2607 65.4264 48.3962L68.6742 46.0613ZM75.4241 4.78253C62.1614 14.3174 59.1393 32.7985 68.6742 46.0613L65.4264 48.3962C54.602 33.3397 58.0327 12.3591 73.0892 1.53473L75.4241 4.78253ZM78.3492 2.9258C77.3516 3.48052 76.3748 4.09907 75.4241 4.78253L73.0892 1.53473C74.1656 0.760872 75.273 0.0594864 76.4055 -0.570171L78.3492 2.9258ZM77.1221 3.16145C69.9472 2.23807 62.425 3.92729 56.0891 8.48231L53.7542 5.23451C60.9452 0.0647115 69.4923 -1.85347 77.6327 -0.805827L77.1221 3.16145ZM56.0891 8.48231C42.8264 18.0172 39.8043 36.4983 49.3392 49.761L46.0914 52.0959C35.267 37.0395 38.6978 16.0589 53.7542 5.23451L56.0891 8.48231ZM49.3392 49.761C58.1908 62.0733 74.755 65.561 87.6928 58.3677L89.6366 61.8636C74.9451 70.0321 56.1418 66.0758 46.0914 52.0959L49.3392 49.761Z" fill="url(#paint0_linear_53_157)" mask="url(#path-1-inside-1_53_157)"/>
<path fill-rule="evenodd" clip-rule="evenodd" d="M2.75439 74.3467C11.1284 73.2691 19.0516 68.8559 24.3688 61.4598C34.5485 47.3002 31.3221 27.5694 17.1625 17.3897C16.1489 16.661 15.1069 16.0011 14.0418 15.4089C21.6994 14.4234 29.7339 16.2271 36.4974 21.0895C50.657 31.2691 53.8834 51 43.7037 65.1596C34.2527 78.3056 16.569 82.0276 2.75439 74.3467Z" fill="#FFE8CF"/>
<circle cx="12.7" cy="15.4544" r="1.22335" fill="#FFE8CF"/>
<circle cx="1.22335" cy="74.215" r="1.22335" fill="#FFE8CF"/>
<circle cx="90.2824" cy="59.984" r="1.22335" fill="#3C3D48"/>
<circle cx="79.2649" cy="1.22335" r="1.22335" fill="#FFE8CF"/>
<defs>
<linearGradient id="paint0_linear_53_157" x1="65.2198" y1="0.918123" x2="71.3728" y2="73.8199" gradientUnits="userSpaceOnUse">
<stop stop-color="#FFE8CF"/>
<stop offset="1" stop-color="#0D1427"/>
</linearGradient>
</defs>
</svg>
