<svg width="73" height="77" viewBox="0 0 73 77" fill="none" xmlns="http://www.w3.org/2000/svg">
<path d="M29.5508 29.6013L29.586 29.7699L29.7542 29.8071L49.4321 34.1569L29.7542 38.5068L29.586 38.5439L29.5508 38.7126L25.3333 58.9304L21.1159 38.7126L21.0807 38.5439L20.9125 38.5068L1.23463 34.1569L20.9125 29.8071L21.0807 29.7699L21.1159 29.6013L25.3333 9.38346L29.5508 29.6013Z" fill="#060D1B" stroke="#E1D7C7" stroke-width="0.532974"/>
<line x1="38.167" y1="15.7324" x2="50.4611" y2="0.830421" stroke="#E1D7C7" stroke-width="0.532974"/>
<line x1="3.53967" y1="63.3972" x2="16.9514" y2="50.3579" stroke="#E1D7C7" stroke-width="0.532974"/>
<line x1="54.9697" y1="60.4392" x2="38.2392" y2="50.7798" stroke="#E1D7C7" stroke-width="0.532974"/>
<line x1="55.8945" y1="34.6358" x2="72.2867" y2="35.3809" stroke="#E1D7C7" stroke-width="0.532974"/>
<path d="M55.8015 16.1589L55.8892 16.5666L56.2223 16.3158L58.8113 14.366L57.2475 17.0967L57.0256 17.4843L57.4721 17.4955L60.7259 17.5772L57.7067 18.705L57.2784 18.865L57.6287 19.1588L60.0657 21.2027L56.9557 20.2179L56.545 20.0879L56.612 20.5134L57.0998 23.6127L55.361 20.9264L55.1373 20.5808L54.9136 20.9264L53.1748 23.6127L53.6626 20.5134L53.7296 20.0879L53.3189 20.2179L50.2089 21.2027L52.6459 19.1588L52.9962 18.865L52.5679 18.705L49.5487 17.5772L52.8025 17.4955L53.249 17.4843L53.0271 17.0967L51.4633 14.366L54.0523 16.3158L54.3854 16.5666L54.4731 16.1589L55.1373 13.0712L55.8015 16.1589Z" fill="#060D1B" stroke="#E1D7C7" stroke-width="0.532974"/>
<path d="M31.9583 67.9432L32.046 68.3509L32.3792 68.1L34.9682 66.1503L33.4044 68.881L33.1824 69.2686L33.6289 69.2798L36.8827 69.3615L33.8635 70.4893L33.4352 70.6493L33.7855 70.9431L36.2226 72.987L33.1125 72.0022L32.7018 71.8722L32.7688 72.2977L33.2567 75.3969L31.5178 72.7107L31.2941 72.3651L31.0704 72.7107L29.3316 75.3969L29.8195 72.2977L29.8864 71.8722L29.4758 72.0022L26.3657 72.987L28.8027 70.9431L29.1531 70.6493L28.7247 70.4893L25.7055 69.3615L28.9593 69.2798L29.4059 69.2686L29.1839 68.881L27.6201 66.1503L30.2091 68.1L30.5422 68.3509L30.6299 67.9432L31.2941 64.8554L31.9583 67.9432Z" fill="#060D1B" stroke="#E1D7C7" stroke-width="0.532974"/>
<path d="M60.7255 51.1476L61.1096 52.4934L61.1804 52.7415L61.4306 52.6788L62.7883 52.3385L61.8147 53.3441L61.6353 53.5294L61.8147 53.7148L62.7883 54.7204L61.4306 54.3801L61.1804 54.3174L61.1096 54.5654L60.7255 55.9113L60.3414 54.5654L60.2706 54.3174L60.0204 54.3801L58.6627 54.7204L59.6363 53.7148L59.8157 53.5294L59.6363 53.3441L58.6627 52.3385L60.0204 52.6788L60.2706 52.7415L60.3414 52.4934L60.7255 51.1476Z" fill="#060D1B" stroke="#E1D7C7" stroke-width="0.532974"/>
<path d="M38.3726 40.7162L38.7567 42.0621L38.8275 42.3102L39.0777 42.2474L40.4354 41.9071L39.4618 42.9127L39.2824 43.0981L39.4618 43.2834L40.4354 44.289L39.0777 43.9487L38.8275 43.886L38.7567 44.1341L38.3726 45.48L37.9885 44.1341L37.9177 43.886L37.6674 43.9487L36.3098 44.289L37.2833 43.2834L37.4628 43.0981L37.2833 42.9127L36.3098 41.9071L37.6674 42.2474L37.9177 42.3102L37.9885 42.0621L38.3726 40.7162Z" fill="#060D1B" stroke="#E1D7C7" stroke-width="0.532974"/>
</svg>
