<svg width="30" height="31" viewBox="0 0 30 31" fill="none" xmlns="http://www.w3.org/2000/svg">
<path d="M14.9999 21.3829C9.66241 21.3829 5.31241 16.9403 5.31241 11.4893C5.31241 6.0382 9.66241 1.59564 14.9999 1.59564C20.3374 1.59564 24.6874 6.0382 24.6874 11.4893C24.6874 16.9403 20.3374 21.3829 14.9999 21.3829ZM14.9999 3.51054C10.6874 3.51054 7.18741 7.085 7.18741 11.4893C7.18741 15.8935 10.6874 19.468 14.9999 19.468C19.3124 19.468 22.8124 15.8935 22.8124 11.4893C22.8124 7.085 19.3124 3.51054 14.9999 3.51054Z" fill="#FFE6CD"/>
<path d="M15 29.0428C14.4875 29.0428 14.0625 28.6087 14.0625 28.0853V20.4257C14.0625 19.9023 14.4875 19.4683 15 19.4683C15.5125 19.4683 15.9375 19.9023 15.9375 20.4257V28.0853C15.9375 28.6087 15.5125 29.0428 15 29.0428Z" fill="#FFE6CD"/>
<path d="M18.75 25.2127H11.25C10.7375 25.2127 10.3125 24.7787 10.3125 24.2553C10.3125 23.7319 10.7375 23.2978 11.25 23.2978H18.75C19.2625 23.2978 19.6875 23.7319 19.6875 24.2553C19.6875 24.7787 19.2625 25.2127 18.75 25.2127Z" fill="#FFE6CD"/>
</svg>
